<?xml version="1.0" encoding="iso-8859-1"?>
<!-- Generator: Adobe Illustrator 19.0.0, SVG Export Plug-In . SVG Version: 6.00 Build 0)  -->
<svg version="1.1" id="Capa_1" xmlns="http://www.w3.org/2000/svg" xmlns:xlink="http://www.w3.org/1999/xlink" x="0px" y="0px"
	 viewBox="0 0 512 512" style="fill: #e9e9e9;" xml:space="preserve">
<g>
	<g>
		<path d="M472,40.063h-24V34.26C448,15.369,432.631,0,413.74,0H98.26C79.369,0,64,15.369,64,34.26v5.803H40
			c-22.056,0-40,17.944-40,40V376c0,22.056,17.944,40,40,40h158v76h-42.333c-5.522,0-10,4.478-10,10c0,5.522,4.478,10,10,10h202.666
			c5.522,0,10-4.478,10-10c0-5.522-4.478-10-10-10H314v-76h158c22.056,0,40-17.944,40-40V80.063
			C512,58.007,494.056,40.063,472,40.063z M20,80.063c0-11.029,8.972-20,20-20h24V332H20V80.063z M294,492h-76v-76h76V492z M492,376
			c0,11.028-8.972,20-20,20H40c-11.028,0-20-8.972-20-20v-24h472V376z M492,332h-44v-95c0-5.522-4.478-10-10-10
			c-5.522,0-10,4.478-10,10v95H84V34.26C84,26.396,90.396,20,98.26,20h315.48c7.863,0,14.26,6.396,14.26,14.26v5.803H232
			c-5.522,0-10,4.478-10,10c0,5.522,4.478,10,10,10h196V152c0,5.522,4.478,10,10,10c5.522,0,10-4.478,10-10V60.063h24
			c11.028,0,20,8.972,20,20V332z"/>
	</g>
</g>
<g>
	<g>
		<path d="M262.069,366.93C260.21,365.069,257.63,364,255,364s-5.21,1.069-7.07,2.93c-1.86,1.861-2.93,4.44-2.93,7.07
			s1.069,5.21,2.93,7.069c1.86,1.86,4.44,2.931,7.07,2.931s5.21-1.07,7.069-2.931C263.93,379.21,265,376.63,265,374
			S263.93,368.79,262.069,366.93z"/>
	</g>
</g>
<g>
	<g>
		<path d="M445.069,193.43c-1.859-1.87-4.439-2.93-7.069-2.93s-5.21,1.06-7.07,2.93c-1.86,1.86-2.93,4.44-2.93,7.07
			s1.069,5.2,2.93,7.069c1.86,1.861,4.44,2.931,7.07,2.931s5.21-1.07,7.069-2.931C446.93,205.7,448,203.13,448,200.5
			S446.93,195.29,445.069,193.43z"/>
	</g>
</g>
<g>
	<g>
		<path d="M128.069,42.93C126.21,41.069,123.63,40,121,40s-5.21,1.069-7.07,2.93S111,47.37,111,50s1.069,5.21,2.93,7.069
			C115.79,58.93,118.37,60,121,60s5.21-1.07,7.069-2.931C129.93,55.21,131,52.63,131,50S129.93,44.79,128.069,42.93z"/>
	</g>
</g>
<g>
	<g>
		<path d="M165.569,42.93C163.71,41.069,161.13,40,158.5,40s-5.21,1.069-7.07,2.93s-2.93,4.44-2.93,7.07s1.069,5.21,2.93,7.069
			C153.29,58.93,155.87,60,158.5,60s5.21-1.07,7.069-2.931C167.43,55.21,168.5,52.63,168.5,50S167.43,44.79,165.569,42.93z"/>
	</g>
</g>
<g>
	<g>
		<path d="M203.069,42.93C201.21,41.069,198.63,40,196,40s-5.21,1.069-7.07,2.93S186,47.37,186,50s1.069,5.21,2.93,7.069
			C190.79,58.93,193.37,60,196,60s5.21-1.07,7.069-2.931C204.93,55.21,206,52.63,206,50S204.93,44.79,203.069,42.93z"/>
	</g>
</g>
<g>
	<g>
		<path d="M379.558,94.063H289.06c-12.606,0-24.378,4.952-33.06,13.474c-8.682-8.522-20.453-13.474-33.06-13.474h-90.498
			c-5.522,0-10,4.478-10,10v172.779c0,5.522,4.478,10,10,10h90.498c10.213,0,19.479,5.632,24.184,14.696
			c0.013,0.026,0.026,0.041,0.039,0.065c1.304,2.465,3.614,4.348,6.467,5.044c0.79,0.193,1.586,0.286,2.372,0.286
			c3.667,0,7.126-2.026,8.874-5.396c4.704-9.064,13.971-14.696,24.184-14.696h90.498c5.522,0,10-4.478,10-10V104.063
			C389.558,98.54,385.08,94.063,379.558,94.063z M246,272.82c-6.907-3.857-14.805-5.978-23.06-5.978h-80.498V114.063h80.498
			c9.453,0,18.096,4.825,23.06,12.731V272.82z M289.06,266.842c-8.255,0-16.152,2.121-23.06,5.979V126.794
			c4.964-7.906,13.606-12.731,23.06-12.731h80.498v152.779H289.06z"/>
	</g>
</g>
<g>
</g>
<g>
</g>
<g>
</g>
<g>
</g>
<g>
</g>
<g>
</g>
<g>
</g>
<g>
</g>
<g>
</g>
<g>
</g>
<g>
</g>
<g>
</g>
<g>
</g>
<g>
</g>
<g>
</g>
</svg>
